<?xml version="1.0" standalone="no"?>
<!DOCTYPE svg PUBLIC "-//W3C//DTD SVG 20010904//EN"
 "http://www.w3.org/TR/2001/REC-SVG-20010904/DTD/svg10.dtd">
<svg version="1.0" xmlns="http://www.w3.org/2000/svg"
 width="138.000000pt" height="126.000000pt" viewBox="0 0 138.000000 126.000000"
 preserveAspectRatio="xMidYMid meet">
<metadata>
Created by potrace 1.16, written by Peter Selinger 2001-2019
</metadata>
<g transform="translate(0.000000,126.000000) scale(0.100000,-0.100000)"
fill="#000000" stroke="none">
<path d="M353 1106 c-96 -31 -169 -92 -215 -179 -19 -35 -23 -58 -23 -132 0
-82 3 -96 34 -159 47 -95 141 -190 306 -310 77 -55 164 -124 193 -153 29 -29
59 -53 65 -53 7 0 21 15 32 33 35 61 84 112 209 222 120 104 144 136 112 148
-24 9 -346 -274 -346 -303 0 -20 -24 -8 -103 53 -45 35 -113 85 -152 112 -164
114 -250 213 -285 324 -24 76 -24 92 -5 158 19 64 80 134 147 167 43 21 66 26
130 26 115 0 182 -40 244 -146 14 -24 33 -44 42 -44 10 1 33 24 52 52 91 134
228 173 333 95 80 -61 107 -158 67 -245 -34 -74 -183 -198 -262 -217 -33 -8
-41 8 -53 95 -9 73 -27 100 -66 100 -37 0 -68 -30 -105 -101 l-28 -54 -6 60
c-14 134 -71 148 -150 38 -42 -59 -50 -55 -50 23 0 78 -58 106 -114 56 -36
-33 -64 -123 -46 -152 12 -20 39 -4 45 27 11 49 34 93 50 93 13 0 15 -19 15
-120 0 -113 1 -120 20 -120 13 0 32 19 57 58 79 124 98 152 104 152 12 0 19
-45 19 -131 0 -69 3 -88 15 -93 28 -10 55 18 100 105 44 85 69 118 78 102 2
-4 8 -30 11 -58 15 -107 35 -135 100 -135 74 0 264 148 314 244 85 164 -44
366 -233 366 -75 0 -122 -21 -204 -91 l-64 -54 -61 60 c-38 38 -76 65 -101 73
-63 20 -174 24 -222 8z"/>
</g>
</svg>
